# xmcd
#
# Track frame offsets:
#	150
#	18348
#	35496
#	50844
#	68817
#	86340
#	102213
#	115611
#	130809
#	148932
#	162480
#
# Disc length: 2362 seconds
#
# Revision: 0
# Processed by: cddbd v1.5.2PL0 Copyright (c) Steve Scherf et al.
# Submitted via: SynApp - FreeCDDB Version: 2.5
#
DISCID=9409380b
DTITLE=Gentry Montgomery - Back When I Knew It All
DYEAR=2008
DGENRE=Country
TTITLE0=Montgomery Gentry - The Big Revival
TTITLE1=Montgomery Gentry - Long Line Of Losers
TTITLE2=Montgomery Gentry - How You're Talkin'
TTITLE3=Montgomery Gentry - Back When I Knew It All
TTITLE4=Montgomery Gentry - Roll With Me
TTITLE5=Montgomery Gentry - One In Every Crowd
TTITLE6=Montgomery Gentry - Look Some More
TTITLE7=Montgomery Gentry - I Pick My Parties (featuring Toby Keith)
TTITLE8=Montgomery Gentry - One Trip
TTITLE9=Montgomery Gentry - It Ain't That Easy
TTITLE10=Montgomery Gentry - God Knows Who I Am (featuring Lillie Mae Rische of Jypsi)
EXTD=
EXTT0=
EXTT1=
EXTT2=
EXTT3=
EXTT4=
EXTT5=
EXTT6=
EXTT7=
EXTT8=
EXTT9=
EXTT10=
PLAYORDER=
